<?xml version="1.0" encoding="utf-8"?>
<!-- Generator: Adobe Illustrator 16.2.1, SVG Export Plug-In . SVG Version: 6.00 Build 0)  -->
<!DOCTYPE svg PUBLIC "-//W3C//DTD SVG 1.1//EN" "http://www.w3.org/Graphics/SVG/1.1/DTD/svg11.dtd">
<svg version="1.1" id="Layer_1" xmlns="http://www.w3.org/2000/svg" xmlns:xlink="http://www.w3.org/1999/xlink" x="0px" y="0px"
	 width="445.121px" height="445.121px" viewBox="0 0 445.121 445.121" enable-background="new 0 0 445.121 445.121"
	 xml:space="preserve">
<g>
	<polygon points="190.767,127.177 127.178,127.177 127.178,190.766 127.178,254.355 127.178,317.943 190.767,317.943 
		254.354,317.943 317.943,317.943 317.943,254.355 317.943,190.766 317.943,127.177 254.354,127.177 	"/>
	<path d="M381.532,0h-63.589h-63.589h-63.588h-63.589H63.589H0v63.588v63.589v63.588v63.589v63.588v63.589v63.589h63.589h63.589
		h63.589h63.588h63.589h63.589h63.589v-63.589v-63.589v-63.588v-63.589v-63.588V63.588V0H381.532z M381.532,127.177v63.588v63.589
		v63.588v63.589h-63.589h-63.589h-63.588h-63.589H63.589v-63.589v-63.588v-63.589v-63.588V63.588h63.589h63.589h63.588h63.589
		h63.589V127.177z"/>
</g>
</svg>
