<?xml version="1.0" encoding="utf-8"?>
<!-- Generator: Adobe Illustrator 16.2.1, SVG Export Plug-In . SVG Version: 6.00 Build 0)  -->
<!DOCTYPE svg PUBLIC "-//W3C//DTD SVG 1.1//EN" "http://www.w3.org/Graphics/SVG/1.1/DTD/svg11.dtd">
<svg version="1.1" id="Layer_1" xmlns="http://www.w3.org/2000/svg" xmlns:xlink="http://www.w3.org/1999/xlink" x="0px" y="0px"
	 width="508.71px" height="254.355px" viewBox="0 0 508.71 254.355" enable-background="new 0 0 508.71 254.355"
	 xml:space="preserve">
<polygon points="445.121,63.589 445.121,127.178 381.532,127.178 381.532,63.589 381.532,0 317.943,0 254.355,0 190.767,0 
	190.767,63.589 127.178,63.589 63.589,63.589 63.589,127.178 0,127.178 0,190.767 63.589,190.767 127.178,190.767 190.767,190.767 
	190.767,127.178 254.355,127.178 254.355,63.589 317.943,63.589 317.943,127.178 317.943,190.767 381.532,190.767 445.121,190.767 
	445.121,254.355 508.71,254.355 508.71,190.767 508.71,127.178 508.71,63.589 508.71,0 445.121,0 "/>
</svg>
