<?xml version="1.0" encoding="utf-8"?>
<!-- Generator: Adobe Illustrator 16.2.1, SVG Export Plug-In . SVG Version: 6.00 Build 0)  -->
<!DOCTYPE svg PUBLIC "-//W3C//DTD SVG 1.1//EN" "http://www.w3.org/Graphics/SVG/1.1/DTD/svg11.dtd">
<svg version="1.1" id="Layer_1" xmlns="http://www.w3.org/2000/svg" xmlns:xlink="http://www.w3.org/1999/xlink" x="0px" y="0px"
	 width="445.121px" height="445.121px" viewBox="0 0 445.121 445.121" enable-background="new 0 0 445.121 445.121"
	 xml:space="preserve">
<g>
	<path d="M127.178,445.121h63.588h63.59h63.589h63.588h63.589v-63.589v-63.589v-63.588v-63.589v-63.588V63.588V0h-63.589h-63.588
		h-63.589h-63.59h-63.588H63.589H0v63.588v63.589v63.588v63.589v63.588v63.589v63.589h63.589H127.178z M63.589,317.943v-63.588
		v-63.589v-63.588V63.588h63.589h63.588h63.59h63.589h63.588v63.589v63.588v63.589v63.588v63.589h-63.588h-63.589h-63.59h-63.588
		H63.589V317.943z"/>
	<polygon points="254.355,317.943 317.944,317.943 317.944,254.355 317.944,190.766 317.944,127.177 254.355,127.177 
		190.766,127.177 127.178,127.177 127.178,190.766 127.178,254.355 127.178,317.943 190.766,317.943 	"/>
</g>
</svg>
