<?xml version="1.0" encoding="utf-8"?>
<!-- Generator: Adobe Illustrator 16.2.1, SVG Export Plug-In . SVG Version: 6.00 Build 0)  -->
<!DOCTYPE svg PUBLIC "-//W3C//DTD SVG 1.1//EN" "http://www.w3.org/Graphics/SVG/1.1/DTD/svg11.dtd">
<svg version="1.1" id="Layer_1" xmlns="http://www.w3.org/2000/svg" xmlns:xlink="http://www.w3.org/1999/xlink" x="0px" y="0px"
	 width="360px" height="360px" viewBox="0 0 360 360" enable-background="new 0 0 360 360" xml:space="preserve">
<g>
	<path d="M-0.092,52.51L17.227,7.414h6.429L42.113,52.51h-6.798l-5.26-13.658H11.197L6.245,52.51H-0.092z M12.92,33.992h15.289
		l-4.707-12.489c-1.436-3.794-2.502-6.911-3.199-9.352c-0.574,2.892-1.384,5.763-2.43,8.613L12.92,33.992z"/>
	<path d="M66.776,52.51V19.841h4.983v4.953c1.271-2.317,2.446-3.845,3.522-4.583c1.077-0.738,2.261-1.107,3.553-1.107
		c1.866,0,3.763,0.595,5.691,1.784l-1.907,5.137c-1.354-0.8-2.707-1.2-4.061-1.2c-1.21,0-2.297,0.364-3.261,1.092
		c-0.964,0.729-1.651,1.738-2.061,3.03c-0.615,1.969-0.923,4.122-0.923,6.46V52.51H66.776z"/>
	<path d="M130.845,41.99l5.722,0.708c-0.903,3.343-2.574,5.937-5.014,7.783c-2.441,1.846-5.558,2.769-9.352,2.769
		c-4.779,0-8.567-1.471-11.367-4.414c-2.799-2.943-4.199-7.07-4.199-12.382c0-5.496,1.415-9.762,4.245-12.797
		c2.83-3.035,6.501-4.553,11.013-4.553c4.368,0,7.937,1.487,10.705,4.46c2.769,2.974,4.153,7.157,4.153,12.551
		c0,0.328-0.011,0.82-0.031,1.477h-24.363c0.205,3.589,1.22,6.337,3.045,8.244c1.825,1.907,4.102,2.861,6.829,2.861
		c2.03,0,3.763-0.533,5.199-1.6C128.865,46.03,130.003,44.328,130.845,41.99z M112.665,33.038h18.242
		c-0.246-2.748-0.943-4.809-2.092-6.183c-1.764-2.133-4.05-3.199-6.86-3.199c-2.543,0-4.681,0.851-6.414,2.553
		C113.808,27.912,112.849,30.188,112.665,33.038z"/>
	<path d="M229.758,52.51V33.407l-17.38-25.994h7.26l8.89,13.597c1.641,2.543,3.169,5.086,4.584,7.629
		c1.354-2.358,2.994-5.014,4.922-7.967l8.736-13.258h6.952l-17.995,25.994V52.51H229.758z"/>
	<path d="M271.187,36.176c0-6.049,1.682-10.531,5.045-13.443c2.81-2.419,6.234-3.63,10.274-3.63c4.491,0,8.162,1.472,11.013,4.414
		c2.851,2.943,4.275,7.009,4.275,12.197c0,4.204-0.63,7.511-1.892,9.921c-1.261,2.41-3.097,4.281-5.506,5.614
		c-2.41,1.333-5.04,2-7.891,2c-4.573,0-8.271-1.466-11.09-4.399C272.597,45.917,271.187,41.693,271.187,36.176z M276.878,36.176
		c0,4.184,0.912,7.316,2.737,9.398s4.122,3.122,6.891,3.122c2.748,0,5.034-1.046,6.86-3.138c1.824-2.092,2.737-5.28,2.737-9.567
		c0-4.04-0.918-7.101-2.753-9.182c-1.836-2.082-4.117-3.123-6.845-3.123c-2.769,0-5.065,1.036-6.891,3.107
		C277.79,28.865,276.878,31.992,276.878,36.176z"/>
	<path d="M350.359,52.51v-4.799c-2.543,3.691-5.998,5.537-10.366,5.537c-1.928,0-3.728-0.369-5.398-1.107
		c-1.672-0.738-2.912-1.666-3.723-2.784c-0.811-1.117-1.379-2.486-1.707-4.106c-0.226-1.087-0.339-2.81-0.339-5.168V19.841h5.537
		V37.96c0,2.892,0.113,4.84,0.339,5.845c0.349,1.457,1.087,2.599,2.215,3.43c1.128,0.83,2.522,1.246,4.184,1.246
		s3.22-0.425,4.676-1.277c1.456-0.851,2.486-2.009,3.092-3.476c0.604-1.466,0.907-3.594,0.907-6.383V19.841h5.537V52.51H350.359z"/>
	<path d="M39.037,120.681c2.769,1.907,5.322,3.302,7.66,4.184l-1.753,4.153c-3.241-1.169-6.471-3.015-9.69-5.537
		c-3.343,1.866-7.034,2.799-11.074,2.799c-4.081,0-7.783-0.984-11.105-2.953s-5.881-4.737-7.675-8.306s-2.691-7.587-2.691-12.059
		c0-4.45,0.902-8.5,2.707-12.151c1.804-3.65,4.373-6.429,7.706-8.336c3.332-1.907,7.06-2.861,11.182-2.861
		c4.163,0,7.916,0.99,11.259,2.969c3.342,1.979,5.891,4.748,7.645,8.306c1.753,3.558,2.63,7.572,2.63,12.043
		c0,3.712-0.564,7.05-1.692,10.013C43.015,115.908,41.313,118.486,39.037,120.681z M25.901,113.052
		c3.445,0.964,6.286,2.399,8.521,4.307c3.507-3.199,5.26-8.008,5.26-14.427c0-3.65-0.621-6.839-1.861-9.567
		c-1.241-2.727-3.056-4.845-5.444-6.352c-2.39-1.508-5.071-2.261-8.044-2.261c-4.45,0-8.142,1.523-11.074,4.568
		c-2.933,3.046-4.399,7.594-4.399,13.643c0,5.865,1.451,10.367,4.353,13.504s6.609,4.707,11.121,4.707c2.133,0,4.142-0.4,6.029-1.2
		c-1.866-1.21-3.835-2.071-5.906-2.584L25.901,113.052z"/>
	<path d="M97.939,125.51v-4.799c-2.543,3.691-5.999,5.537-10.367,5.537c-1.928,0-3.728-0.369-5.398-1.107
		c-1.672-0.738-2.913-1.666-3.723-2.784c-0.81-1.117-1.379-2.486-1.707-4.106c-0.226-1.087-0.338-2.81-0.338-5.168V92.841h5.537
		v18.119c0,2.892,0.112,4.84,0.338,5.845c0.349,1.457,1.087,2.599,2.215,3.43c1.127,0.83,2.522,1.246,4.184,1.246
		s3.219-0.425,4.676-1.277c1.456-0.851,2.486-2.009,3.092-3.476c0.604-1.466,0.907-3.594,0.907-6.383V92.841h5.537v32.669H97.939z"
		/>
	<path d="M134.971,86.781v-6.368h5.537v6.368H134.971z M134.971,125.51V92.841h5.537v32.669H134.971z"/>
	<path d="M193.627,113.544l5.445,0.708c-0.596,3.753-2.117,6.69-4.568,8.813c-2.451,2.122-5.461,3.184-9.029,3.184
		c-4.471,0-8.064-1.461-10.781-4.384c-2.718-2.922-4.076-7.11-4.076-12.566c0-3.527,0.584-6.614,1.753-9.259s2.948-4.63,5.337-5.952
		c2.389-1.323,4.989-1.984,7.797-1.984c3.549,0,6.449,0.897,8.705,2.691c2.256,1.795,3.703,4.343,4.338,7.645l-5.383,0.831
		c-0.514-2.194-1.42-3.845-2.723-4.953s-2.877-1.661-4.723-1.661c-2.789,0-5.055,1-6.797,2.999c-1.743,2-2.615,5.164-2.615,9.49
		c0,4.389,0.841,7.578,2.522,9.567c1.681,1.989,3.876,2.984,6.583,2.984c2.174,0,3.988-0.666,5.445-2
		C192.314,118.363,193.238,116.312,193.627,113.544z"/>
	<path d="M227.213,125.51V80.414h5.537v25.717l13.104-13.289h7.167l-12.488,12.12l13.75,20.549h-6.829l-10.798-16.704l-3.906,3.753
		v12.951H227.213z"/>
	<path d="M304.419,114.99l5.722,0.708c-0.902,3.343-2.574,5.937-5.014,7.783c-2.441,1.846-5.559,2.769-9.352,2.769
		c-4.779,0-8.567-1.471-11.367-4.414c-2.799-2.943-4.199-7.07-4.199-12.382c0-5.496,1.416-9.762,4.246-12.797
		c2.83-3.035,6.5-4.553,11.012-4.553c4.369,0,7.938,1.487,10.705,4.46c2.77,2.974,4.153,7.157,4.153,12.551
		c0,0.328-0.011,0.82-0.03,1.477h-24.363c0.204,3.589,1.22,6.337,3.045,8.244s4.102,2.861,6.829,2.861c2.03,0,3.763-0.533,5.198-1.6
		C302.439,119.03,303.578,117.328,304.419,114.99z M286.238,106.038h18.242c-0.246-2.748-0.943-4.809-2.092-6.183
		c-1.764-2.133-4.051-3.199-6.859-3.199c-2.544,0-4.682,0.851-6.414,2.553C287.382,100.912,286.424,103.188,286.238,106.038z"/>
	<path d="M340.405,125.51V92.841h4.982v4.953c1.271-2.317,2.446-3.845,3.522-4.583c1.077-0.738,2.261-1.107,3.554-1.107
		c1.865,0,3.763,0.595,5.69,1.784l-1.907,5.137c-1.354-0.8-2.707-1.2-4.061-1.2c-1.21,0-2.297,0.364-3.261,1.092
		c-0.964,0.729-1.651,1.738-2.062,3.03c-0.615,1.969-0.922,4.122-0.922,6.46v17.104H340.405z"/>
	<path d="M16.334,198.51v-39.775H1.477v-5.322h35.745v5.322H22.302v39.775H16.334z"/>
	<path d="M70.797,198.51v-45.097h5.537v16.181c2.584-2.994,5.845-4.491,9.782-4.491c2.419,0,4.522,0.477,6.306,1.431
		c1.784,0.953,3.061,2.271,3.83,3.953c0.769,1.682,1.153,4.122,1.153,7.321v20.703h-5.537v-20.703c0-2.769-0.6-4.784-1.8-6.044
		c-1.199-1.262-2.896-1.892-5.091-1.892c-1.641,0-3.184,0.426-4.63,1.277c-1.445,0.851-2.476,2.004-3.091,3.46
		c-0.615,1.457-0.923,3.466-0.923,6.029v17.873H70.797z"/>
	<path d="M155.313,194.48c-2.051,1.743-4.025,2.974-5.922,3.691c-1.897,0.717-3.933,1.076-6.106,1.076
		c-3.589,0-6.348-0.877-8.275-2.63c-1.928-1.754-2.892-3.994-2.892-6.722c0-1.6,0.364-3.061,1.092-4.384
		c0.728-1.322,1.682-2.384,2.861-3.184c1.179-0.8,2.507-1.404,3.983-1.815c1.087-0.287,2.727-0.564,4.922-0.831
		c4.471-0.533,7.762-1.169,9.875-1.907c0.02-0.758,0.031-1.241,0.031-1.446c0-2.256-0.523-3.845-1.569-4.768
		c-1.415-1.25-3.518-1.876-6.306-1.876c-2.604,0-4.527,0.457-5.768,1.369c-1.241,0.913-2.159,2.528-2.753,4.845l-5.414-0.738
		c0.492-2.317,1.302-4.188,2.43-5.614c1.127-1.425,2.758-2.522,4.891-3.292c2.133-0.769,4.604-1.153,7.414-1.153
		c2.789,0,5.055,0.328,6.798,0.984c1.743,0.657,3.025,1.482,3.845,2.477c0.82,0.995,1.395,2.25,1.723,3.768
		c0.185,0.943,0.277,2.646,0.277,5.106v7.382c0,5.148,0.118,8.403,0.354,9.768c0.235,1.364,0.702,2.671,1.399,3.922h-5.783
		C155.846,197.361,155.477,196.018,155.313,194.48z M154.852,182.113c-2.01,0.821-5.025,1.519-9.044,2.092
		c-2.276,0.329-3.887,0.698-4.83,1.107c-0.943,0.411-1.672,1.011-2.184,1.8c-0.513,0.79-0.769,1.667-0.769,2.63
		c0,1.477,0.559,2.707,1.677,3.691c1.117,0.984,2.753,1.477,4.906,1.477c2.133,0,4.03-0.466,5.691-1.399
		c1.661-0.933,2.881-2.209,3.661-3.829c0.595-1.251,0.892-3.097,0.892-5.537V182.113z"/>
	<path d="M197.193,198.51v-32.669h4.984v4.645c2.398-3.588,5.864-5.383,10.396-5.383c1.969,0,3.779,0.354,5.43,1.062
		c1.65,0.707,2.887,1.635,3.707,2.784c0.82,1.149,1.395,2.512,1.723,4.091c0.205,1.026,0.308,2.82,0.308,5.383v20.087h-5.537
		v-19.872c0-2.256-0.216-3.942-0.646-5.061c-0.432-1.117-1.195-2.009-2.292-2.676c-1.098-0.667-2.384-1-3.86-1
		c-2.359,0-4.395,0.749-6.106,2.246c-1.713,1.497-2.569,4.337-2.569,8.521v17.842H197.193z"/>
	<path d="M315.809,198.51l17.318-45.097h6.43l18.457,45.097h-6.799l-5.26-13.658h-18.857l-4.953,13.658H315.809z M328.82,179.991
		h15.289l-4.707-12.489c-1.436-3.794-2.502-6.911-3.199-9.352c-0.574,2.892-1.385,5.763-2.43,8.613L328.82,179.991z"/>
	<path d="M39.037,266.68c2.769,1.908,5.322,3.303,7.66,4.184l-1.753,4.153c-3.241-1.169-6.471-3.015-9.69-5.537
		c-3.343,1.866-7.034,2.8-11.074,2.8c-4.081,0-7.783-0.984-11.105-2.953s-5.881-4.738-7.675-8.307s-2.691-7.587-2.691-12.059
		c0-4.449,0.902-8.5,2.707-12.15c1.804-3.65,4.373-6.43,7.706-8.336c3.332-1.908,7.06-2.861,11.182-2.861
		c4.163,0,7.916,0.989,11.259,2.969c3.342,1.979,5.891,4.748,7.645,8.306c1.753,3.558,2.63,7.572,2.63,12.043
		c0,3.712-0.564,7.05-1.692,10.013C43.015,261.907,41.313,264.486,39.037,266.68z M25.901,259.051
		c3.445,0.965,6.286,2.4,8.521,4.307c3.507-3.199,5.26-8.008,5.26-14.427c0-3.65-0.621-6.839-1.861-9.567
		c-1.241-2.727-3.056-4.845-5.444-6.352c-2.39-1.508-5.071-2.262-8.044-2.262c-4.45,0-8.142,1.523-11.074,4.568
		c-2.933,3.046-4.399,7.594-4.399,13.643c0,5.866,1.451,10.367,4.353,13.505s6.609,4.706,11.121,4.706
		c2.133,0,4.142-0.399,6.029-1.199c-1.866-1.21-3.835-2.071-5.906-2.584L25.901,259.051z"/>
	<path d="M124.084,271.51v-4.799c-2.543,3.691-5.999,5.537-10.367,5.537c-1.928,0-3.728-0.369-5.398-1.107
		c-1.672-0.738-2.913-1.666-3.723-2.784c-0.81-1.117-1.379-2.486-1.707-4.106c-0.226-1.087-0.338-2.81-0.338-5.168v-20.241h5.537
		v18.118c0,2.893,0.112,4.841,0.338,5.846c0.349,1.456,1.087,2.599,2.215,3.43c1.127,0.83,2.522,1.246,4.184,1.246
		s3.219-0.426,4.676-1.277c1.456-0.851,2.486-2.01,3.092-3.476c0.604-1.466,0.907-3.594,0.907-6.384v-17.503h5.537v32.669H124.084z"
		/>
	<path d="M187.261,232.781v-6.368h5.537v6.368H187.261z M187.261,271.51v-32.669h5.537v32.669H187.261z"/>
	<path d="M272.062,259.543l5.445,0.708c-0.596,3.753-2.118,6.69-4.568,8.813c-2.451,2.122-5.461,3.184-9.029,3.184
		c-4.471,0-8.064-1.461-10.781-4.384c-2.718-2.922-4.076-7.11-4.076-12.565c0-3.527,0.584-6.614,1.754-9.26
		c1.168-2.646,2.947-4.63,5.337-5.952c2.389-1.323,4.988-1.984,7.798-1.984c3.548,0,6.449,0.897,8.705,2.691
		c2.256,1.795,3.702,4.343,4.338,7.645l-5.383,0.831c-0.514-2.194-1.421-3.846-2.723-4.953c-1.303-1.107-2.877-1.661-4.723-1.661
		c-2.789,0-5.055,1-6.798,2.999c-1.743,2-2.614,5.163-2.614,9.49c0,4.389,0.84,7.578,2.521,9.566
		c1.682,1.99,3.877,2.984,6.584,2.984c2.173,0,3.988-0.666,5.444-2C270.75,264.363,271.673,262.312,272.062,259.543z"/>
	<path d="M331.793,271.51v-45.097h5.537v25.717l13.104-13.289h7.167l-12.488,12.12l13.75,20.549h-6.829l-10.798-16.703l-3.906,3.752
		v12.951H331.793z"/>
	<path d="M4.953,344.51v-45.097h19.995c4.019,0,7.075,0.405,9.167,1.215c2.092,0.811,3.763,2.241,5.014,4.292
		c1.25,2.051,1.876,4.316,1.876,6.798c0,3.199-1.036,5.896-3.107,8.091c-2.072,2.194-5.271,3.589-9.598,4.184
		c1.579,0.759,2.779,1.507,3.599,2.245c1.743,1.6,3.394,3.599,4.953,5.999l7.844,12.273h-7.506l-5.968-9.383
		c-1.743-2.707-3.179-4.777-4.307-6.213c-1.128-1.436-2.138-2.44-3.03-3.016c-0.893-0.573-1.8-0.974-2.723-1.199
		c-0.677-0.144-1.784-0.215-3.322-0.215H10.92v20.025H4.953z M10.92,319.316h12.828c2.727,0,4.86-0.282,6.398-0.847
		c1.538-0.563,2.707-1.466,3.507-2.707c0.8-1.24,1.2-2.589,1.2-4.045c0-2.133-0.774-3.886-2.323-5.261
		c-1.548-1.373-3.994-2.061-7.336-2.061H10.92V319.316z"/>
	<path d="M82.912,333.989l5.722,0.708c-0.903,3.343-2.574,5.937-5.014,7.782c-2.441,1.846-5.558,2.769-9.352,2.769
		c-4.779,0-8.567-1.472-11.367-4.414c-2.799-2.942-4.199-7.07-4.199-12.382c0-5.496,1.415-9.762,4.245-12.797
		s6.501-4.553,11.013-4.553c4.368,0,7.937,1.487,10.705,4.46c2.769,2.975,4.153,7.158,4.153,12.551c0,0.329-0.011,0.821-0.031,1.477
		H64.424c0.205,3.59,1.22,6.338,3.045,8.244c1.825,1.908,4.102,2.861,6.829,2.861c2.03,0,3.763-0.533,5.199-1.6
		C80.933,338.029,82.071,336.327,82.912,333.989z M64.732,325.037h18.242c-0.246-2.747-0.943-4.809-2.092-6.183
		c-1.764-2.133-4.05-3.199-6.86-3.199c-2.543,0-4.681,0.852-6.414,2.554C65.875,319.911,64.917,322.188,64.732,325.037z"/>
	<path d="M104.27,334.758l5.476-0.861c0.308,2.195,1.164,3.877,2.569,5.045c1.404,1.17,3.368,1.754,5.891,1.754
		c2.542,0,4.43-0.518,5.66-1.554c1.23-1.035,1.846-2.25,1.846-3.646c0-1.25-0.543-2.234-1.63-2.953
		c-0.759-0.492-2.646-1.117-5.66-1.876c-4.061-1.025-6.875-1.912-8.444-2.661c-1.569-0.748-2.759-1.784-3.568-3.106
		c-0.811-1.323-1.215-2.784-1.215-4.384c0-1.456,0.333-2.804,1-4.045s1.574-2.271,2.723-3.092c0.861-0.636,2.035-1.174,3.522-1.615
		c1.486-0.44,3.081-0.661,4.783-0.661c2.563,0,4.814,0.369,6.752,1.107c1.938,0.738,3.369,1.738,4.292,2.999
		c0.923,1.262,1.558,2.948,1.907,5.061l-5.414,0.738c-0.246-1.682-0.959-2.994-2.138-3.938s-2.845-1.415-4.999-1.415
		c-2.543,0-4.358,0.421-5.445,1.261c-1.087,0.842-1.63,1.826-1.63,2.953c0,0.719,0.226,1.364,0.677,1.938
		c0.451,0.595,1.158,1.087,2.123,1.477c0.554,0.205,2.184,0.677,4.891,1.415c3.917,1.046,6.649,1.902,8.198,2.568
		c1.548,0.667,2.764,1.636,3.646,2.907c0.881,1.271,1.323,2.851,1.323,4.737c0,1.846-0.539,3.584-1.615,5.214
		c-1.077,1.631-2.63,2.892-4.661,3.784c-2.03,0.892-4.327,1.338-6.891,1.338c-4.245,0-7.48-0.882-9.706-2.646
		S104.885,338.225,104.27,334.758z"/>
	<path d="M148.884,357.029v-45.188h5.045v4.245c1.189-1.661,2.533-2.907,4.03-3.737c1.497-0.831,3.312-1.246,5.445-1.246
		c2.789,0,5.25,0.718,7.383,2.153c2.133,1.436,3.742,3.461,4.83,6.075c1.087,2.615,1.63,5.481,1.63,8.599
		c0,3.343-0.6,6.352-1.799,9.028c-1.2,2.676-2.943,4.727-5.229,6.152c-2.287,1.425-4.691,2.138-7.214,2.138
		c-1.846,0-3.502-0.39-4.968-1.169c-1.467-0.779-2.672-1.764-3.615-2.953v15.903H148.884z M153.898,328.359
		c0,4.205,0.851,7.312,2.553,9.321c1.702,2.01,3.763,3.015,6.183,3.015c2.461,0,4.568-1.041,6.321-3.122
		c1.754-2.081,2.63-5.307,2.63-9.675c0-4.163-0.856-7.28-2.569-9.352s-3.758-3.107-6.137-3.107c-2.358,0-4.445,1.104-6.26,3.308
		C154.805,320.951,153.898,324.156,153.898,328.359z"/>
	<path d="M192.76,328.176c0-6.05,1.682-10.531,5.045-13.443c2.81-2.42,6.234-3.63,10.274-3.63c4.491,0,8.162,1.472,11.013,4.414
		c2.851,2.943,4.275,7.009,4.275,12.197c0,4.204-0.63,7.511-1.892,9.921c-1.261,2.41-3.097,4.281-5.506,5.613
		c-2.41,1.333-5.04,2-7.891,2c-4.573,0-8.271-1.466-11.09-4.398S192.76,333.692,192.76,328.176z M198.451,328.176
		c0,4.184,0.912,7.316,2.737,9.397s4.122,3.122,6.891,3.122c2.748,0,5.034-1.046,6.86-3.138c1.824-2.092,2.737-5.28,2.737-9.567
		c0-4.039-0.918-7.101-2.753-9.182c-1.836-2.081-4.117-3.123-6.845-3.123c-2.769,0-5.065,1.036-6.891,3.107
		S198.451,323.992,198.451,328.176z"/>
	<path d="M240.757,344.51v-32.669h4.984v4.646c2.398-3.589,5.864-5.384,10.396-5.384c1.969,0,3.779,0.354,5.43,1.062
		c1.65,0.707,2.887,1.636,3.707,2.783c0.82,1.149,1.395,2.513,1.723,4.092c0.205,1.025,0.308,2.82,0.308,5.383v20.088h-5.537
		v-19.872c0-2.256-0.216-3.942-0.646-5.061c-0.432-1.117-1.195-2.01-2.292-2.676c-1.098-0.666-2.384-1-3.86-1
		c-2.359,0-4.395,0.749-6.106,2.245c-1.713,1.498-2.569,4.338-2.569,8.521v17.842H240.757z"/>
	<path d="M284.478,334.758l5.477-0.861c0.307,2.195,1.163,3.877,2.568,5.045c1.404,1.17,3.368,1.754,5.891,1.754
		c2.543,0,4.43-0.518,5.66-1.554c1.23-1.035,1.846-2.25,1.846-3.646c0-1.25-0.544-2.234-1.631-2.953
		c-0.759-0.492-2.645-1.117-5.66-1.876c-4.061-1.025-6.875-1.912-8.443-2.661c-1.569-0.748-2.759-1.784-3.568-3.106
		c-0.811-1.323-1.215-2.784-1.215-4.384c0-1.456,0.333-2.804,0.999-4.045s1.574-2.271,2.723-3.092
		c0.861-0.636,2.035-1.174,3.522-1.615c1.486-0.44,3.081-0.661,4.783-0.661c2.563,0,4.814,0.369,6.752,1.107
		c1.938,0.738,3.369,1.738,4.291,2.999c0.924,1.262,1.559,2.948,1.908,5.061l-5.414,0.738c-0.246-1.682-0.959-2.994-2.139-3.938
		s-2.846-1.415-4.998-1.415c-2.544,0-4.358,0.421-5.445,1.261c-1.087,0.842-1.631,1.826-1.631,2.953
		c0,0.719,0.226,1.364,0.678,1.938c0.45,0.595,1.158,1.087,2.122,1.477c0.554,0.205,2.185,0.677,4.892,1.415
		c3.916,1.046,6.648,1.902,8.197,2.568c1.549,0.667,2.764,1.636,3.646,2.907s1.323,2.851,1.323,4.737
		c0,1.846-0.539,3.584-1.615,5.214c-1.077,1.631-2.631,2.892-4.66,3.784c-2.031,0.892-4.328,1.338-6.891,1.338
		c-4.246,0-7.48-0.882-9.706-2.646S285.093,338.225,284.478,334.758z"/>
	<path d="M351.456,333.989l5.722,0.708c-0.902,3.343-2.574,5.937-5.014,7.782c-2.441,1.846-5.559,2.769-9.352,2.769
		c-4.779,0-8.567-1.472-11.367-4.414c-2.799-2.942-4.199-7.07-4.199-12.382c0-5.496,1.416-9.762,4.246-12.797
		s6.5-4.553,11.012-4.553c4.369,0,7.938,1.487,10.705,4.46c2.77,2.975,4.153,7.158,4.153,12.551c0,0.329-0.011,0.821-0.03,1.477
		h-24.363c0.204,3.59,1.22,6.338,3.045,8.244c1.825,1.908,4.102,2.861,6.829,2.861c2.03,0,3.763-0.533,5.198-1.6
		S350.615,336.327,351.456,333.989z M333.275,325.037h18.242c-0.246-2.747-0.943-4.809-2.092-6.183
		c-1.764-2.133-4.051-3.199-6.859-3.199c-2.544,0-4.682,0.852-6.414,2.554C334.419,319.911,333.461,322.188,333.275,325.037z"/>
</g>
<rect x="779" y="513" fill="none" width="360" height="359.427"/>
<text transform="matrix(1 0 0 1 779 565.5098)"><tspan x="0" y="0" font-family="'ArialMT'" font-size="63" letter-spacing="20">Are</tspan><tspan x="160.029" y="0" font-family="'Kailasa'" font-size="63" letter-spacing="20"> </tspan><tspan x="0" y="73" font-family="'ArialMT'" font-size="63" letter-spacing="20">You</tspan><tspan x="174.088" y="73" font-family="'Kailasa'" font-size="63"> </tspan><tspan x="0" y="146" font-family="'ArialMT'" font-size="63" letter-spacing="23">Quicker</tspan><tspan x="380.666" y="146" font-family="'Kailasa'" font-size="63" letter-spacing="23"> </tspan><tspan x="0" y="219" font-family="'ArialMT'" font-size="63" letter-spacing="28">Than</tspan><tspan x="256.239" y="219" font-family="'Kailasa'" font-size="63" letter-spacing="28"> </tspan><tspan x="315.9" y="219" font-family="'ArialMT'" font-size="63" letter-spacing="28">A</tspan><tspan x="386.082" y="219" font-family="'Kailasa'" font-size="63"> </tspan><tspan x="0" y="292" font-family="'ArialMT'" font-size="63" letter-spacing="49">Quic</tspan><tspan x="327.609" y="292" font-family="'ArialMT'" font-size="63">k</tspan><tspan x="359.109" y="292" font-family="'Kailasa'" font-size="63"> </tspan></text>
</svg>
