<?xml version="1.0" encoding="utf-8"?>
<!-- Generator: Adobe Illustrator 16.2.1, SVG Export Plug-In . SVG Version: 6.00 Build 0)  -->
<!DOCTYPE svg PUBLIC "-//W3C//DTD SVG 1.1//EN" "http://www.w3.org/Graphics/SVG/1.1/DTD/svg11.dtd">
<svg version="1.1" id="Layer_1" xmlns="http://www.w3.org/2000/svg" xmlns:xlink="http://www.w3.org/1999/xlink" x="0px" y="0px"
	 width="800px" height="800px" viewBox="0 0 800 800" enable-background="new 0 0 800 800" xml:space="preserve">
<g>
	<polygon fill="#FFFFFF" points="342.857,228.571 228.57,228.571 228.57,342.857 228.57,457.143 228.57,571.429 342.857,571.429 
		457.143,571.429 571.429,571.429 571.429,457.143 571.429,342.857 571.429,228.571 457.143,228.571 	"/>
	<path fill="#FFFFFF" d="M685.714,0H571.429H457.143H342.857H228.57H114.286H0v114.286v114.286v114.285v114.286V571.43v114.285V800
		h114.286h114.286h114.286h114.286H571.43h114.285H800V685.714V571.429V457.143V342.857V228.571V114.286V0H685.714z
		 M685.714,228.571v114.287v114.285v114.286v114.285H571.429H457.143H342.857H228.57H114.286V571.429V457.143V342.857V228.571
		V114.286h114.286h114.286h114.286H571.43h114.285L685.714,228.571L685.714,228.571z"/>
</g>
</svg>
