<?xml version="1.0" encoding="utf-8"?>
<!-- Generator: Adobe Illustrator 16.2.1, SVG Export Plug-In . SVG Version: 6.00 Build 0)  -->
<!DOCTYPE svg PUBLIC "-//W3C//DTD SVG 1.1//EN" "http://www.w3.org/Graphics/SVG/1.1/DTD/svg11.dtd">
<svg version="1.1" id="Layer_1" xmlns:ev="http://www.w3.org/2001/xml-events"
	 xmlns="http://www.w3.org/2000/svg" xmlns:xlink="http://www.w3.org/1999/xlink" x="0px" y="0px" width="300px" height="300px"
	 viewBox="422 427.5 300 300" enable-background="new 422 427.5 300 300" xml:space="preserve">
<desc></desc>
<g>
	<rect x="422" y="561.983" width="10.345" height="10.345"/>
	<rect x="422" y="593.018" width="10.345" height="10.345"/>
	<path d="M442.689,499.914h10.345h10.345h10.345h10.345h10.345v-10.345v-10.345v-10.345v-10.345v-10.345v-10.345V427.5h-10.345
		h-10.345h-10.345h-10.345h-10.345h-10.345H422v10.345v10.345v10.345v10.345v10.345v10.345v10.345h10.345H442.689z M432.345,479.224
		v-10.345v-10.345v-10.345v-10.345h10.345h10.345h10.345h10.345h10.345v10.345v10.345v10.345v10.345v10.345h-10.345h-10.345h-10.345
		h-10.345h-10.345V479.224z"/>
	<polygon points="442.689,510.259 432.345,510.259 422,510.259 422,520.604 422,530.948 422,541.293 432.345,541.293 
		432.345,530.948 442.689,530.948 442.689,520.604 	"/>
	<polygon points="442.689,603.362 442.689,613.707 432.345,613.707 422,613.707 422,624.052 422,634.396 432.345,634.396 
		442.689,634.396 442.689,624.052 453.035,624.052 453.035,613.707 463.379,613.707 463.379,603.362 453.035,603.362 
		453.035,593.018 442.689,593.018 	"/>
	<polygon points="463.379,479.224 473.724,479.224 473.724,468.879 473.724,458.535 473.724,448.189 463.379,448.189 
		453.035,448.189 442.689,448.189 442.689,458.535 442.689,468.879 442.689,479.224 453.035,479.224 	"/>
	<path d="M463.379,572.328h10.345h10.345v-10.345h10.345h10.345v-10.345h-10.345h-10.345h-10.345v-10.345v-10.345h10.345v-10.345
		h10.345v-10.345h-10.345h-10.345h-10.345v10.345h-10.345v10.345h10.345v10.345h-10.345v-10.345h-10.345v10.345v10.345v10.345
		v10.345v10.345h10.345v-10.345H463.379z M453.035,551.638h10.345v10.345h-10.345V551.638z"/>
	<polygon points="453.035,675.775 442.689,675.775 442.689,686.121 442.689,696.466 442.689,706.811 453.035,706.811 
		463.379,706.811 473.724,706.811 473.724,696.466 473.724,686.121 473.724,675.775 463.379,675.775 	"/>
	<polygon points="463.379,582.673 453.035,582.673 453.035,593.018 463.379,593.018 473.724,593.018 473.724,582.673 	"/>
	<path d="M473.724,655.086h-10.345h-10.345h-10.345h-10.345H422v10.345v10.345v10.346v10.345v10.345v10.345V727.5h10.345h10.345
		h10.345h10.345h10.345h10.345h10.345v-10.345v-10.345v-10.345v-10.345v-10.346v-10.345v-10.345h-10.345H473.724z M484.069,675.775
		v10.346v10.345v10.345v10.345h-10.345h-10.345h-10.345h-10.345h-10.345v-10.345v-10.345v-10.345v-10.346v-10.345h10.345h10.345
		h10.345h10.345h10.345V675.775z"/>
	<rect x="484.069" y="530.948" width="10.345" height="10.345"/>
	<polygon points="484.069,593.018 473.724,593.018 473.724,603.362 484.069,603.362 494.414,603.362 494.414,593.018 	"/>
	<polygon points="515.104,479.224 504.759,479.224 504.759,489.569 504.759,499.914 515.104,499.914 515.104,489.569 	"/>
	<rect x="504.759" y="541.293" width="10.345" height="10.345"/>
	<polygon points="515.104,634.396 525.448,634.396 525.448,644.741 535.793,644.741 535.793,634.396 546.138,634.396 
		546.138,624.052 556.483,624.052 556.483,634.396 546.138,634.396 546.138,644.741 556.483,644.741 556.483,655.086 
		566.828,655.086 577.172,655.086 577.172,644.741 566.828,644.741 566.828,634.396 566.828,624.052 577.172,624.052 
		587.518,624.052 587.518,613.707 577.172,613.707 566.828,613.707 556.483,613.707 556.483,603.362 546.138,603.362 
		546.138,613.707 535.793,613.707 535.793,603.362 525.448,603.362 525.448,593.018 525.448,582.673 525.448,572.328 
		525.448,561.983 515.104,561.983 515.104,572.328 504.759,572.328 494.414,572.328 484.069,572.328 484.069,582.673 
		494.414,582.673 504.759,582.673 515.104,582.673 515.104,593.018 515.104,603.362 515.104,613.707 504.759,613.707 
		504.759,603.362 494.414,603.362 494.414,613.707 484.069,613.707 473.724,613.707 473.724,624.052 463.379,624.052 
		463.379,634.396 463.379,644.741 473.724,644.741 473.724,634.396 484.069,634.396 484.069,624.052 494.414,624.052 
		494.414,634.396 484.069,634.396 484.069,644.741 494.414,644.741 504.759,644.741 504.759,634.396 	"/>
	<rect x="504.759" y="644.741" width="10.345" height="10.345"/>
	<polygon points="515.104,665.431 504.759,665.431 504.759,675.775 504.759,686.121 515.104,686.121 515.104,675.775 	"/>
	<polygon points="525.448,468.879 525.448,458.535 515.104,458.535 515.104,448.189 525.448,448.189 525.448,458.535 
		535.793,458.535 535.793,468.879 546.138,468.879 546.138,458.535 546.138,448.189 535.793,448.189 535.793,437.845 535.793,427.5 
		525.448,427.5 515.104,427.5 504.759,427.5 504.759,437.845 504.759,448.189 504.759,458.535 504.759,468.879 515.104,468.879 	"/>
	<rect x="515.104" y="499.914" width="10.345" height="10.345"/>
	<rect x="515.104" y="655.086" width="10.345" height="10.345"/>
	<rect x="525.448" y="489.569" width="10.345" height="10.345"/>
	<polygon points="525.448,520.604 515.104,520.604 504.759,520.604 504.759,530.948 515.104,530.948 525.448,530.948 
		535.793,530.948 535.793,520.604 	"/>
	<polygon points="535.793,551.638 546.138,551.638 546.138,541.293 556.483,541.293 556.483,551.638 546.138,551.638 
		546.138,561.983 556.483,561.983 556.483,572.328 566.828,572.328 577.172,572.328 577.172,561.983 566.828,561.983 
		566.828,551.638 566.828,541.293 577.172,541.293 587.518,541.293 587.518,530.948 577.172,530.948 577.172,520.604 
		587.518,520.604 587.518,510.259 577.172,510.259 577.172,499.914 577.172,489.569 566.828,489.569 566.828,499.914 
		566.828,510.259 556.483,510.259 556.483,520.604 566.828,520.604 566.828,530.948 556.483,530.948 556.483,520.604 
		546.138,520.604 546.138,530.948 535.793,530.948 535.793,541.293 525.448,541.293 525.448,551.638 525.448,561.983 
		535.793,561.983 	"/>
	<rect x="535.793" y="510.259" width="10.345" height="10.345"/>
	<rect x="535.793" y="593.018" width="10.345" height="10.345"/>
	<polygon points="556.483,499.914 556.483,489.569 556.483,479.224 546.138,479.224 535.793,479.224 535.793,489.569 
		546.138,489.569 546.138,499.914 546.138,510.259 556.483,510.259 	"/>
	<rect x="546.138" y="582.673" width="10.345" height="10.345"/>
	<rect x="546.138" y="665.431" width="10.345" height="10.345"/>
	<rect x="556.483" y="458.535" width="10.345" height="10.345"/>
	<polygon points="577.172,437.845 577.172,427.5 566.828,427.5 556.483,427.5 546.138,427.5 546.138,437.845 556.483,437.845 
		556.483,448.189 566.828,448.189 566.828,437.845 	"/>
	<rect x="566.828" y="448.189" width="10.345" height="10.345"/>
	<rect x="577.172" y="458.535" width="10.345" height="10.345"/>
	<rect x="577.172" y="551.638" width="10.345" height="10.345"/>
	<polygon points="577.172,665.431 566.828,665.431 566.828,675.775 556.483,675.775 556.483,686.121 566.828,686.121 
		577.172,686.121 577.172,675.775 587.518,675.775 587.518,665.431 587.518,655.086 577.172,655.086 	"/>
	<rect x="587.518" y="468.879" width="10.345" height="10.345"/>
	<rect x="587.518" y="489.569" width="10.345" height="10.345"/>
	<rect x="587.518" y="520.604" width="10.345" height="10.345"/>
	<polygon points="597.862,686.121 587.518,686.121 587.518,696.466 577.172,696.466 566.828,696.466 556.483,696.466 
		556.483,686.121 546.138,686.121 546.138,696.466 535.793,696.466 535.793,686.121 546.138,686.121 546.138,675.775 
		535.793,675.775 535.793,665.431 525.448,665.431 525.448,675.775 525.448,686.121 515.104,686.121 515.104,696.466 
		515.104,706.811 504.759,706.811 504.759,717.155 504.759,727.5 515.104,727.5 525.448,727.5 525.448,717.155 525.448,706.811 
		535.793,706.811 535.793,717.155 546.138,717.155 546.138,706.811 556.483,706.811 556.483,717.155 546.138,717.155 546.138,727.5 
		556.483,727.5 566.828,727.5 566.828,717.155 566.828,706.811 577.172,706.811 587.518,706.811 587.518,717.155 587.518,727.5 
		597.862,727.5 597.862,717.155 608.207,717.155 608.207,706.811 608.207,696.466 597.862,696.466 	"/>
	<polygon points="597.862,551.638 608.207,551.638 618.552,551.638 628.896,551.638 628.896,561.983 639.241,561.983 
		649.586,561.983 649.586,551.638 639.241,551.638 639.241,541.293 628.896,541.293 618.552,541.293 618.552,530.948 
		608.207,530.948 597.862,530.948 597.862,541.293 	"/>
	<polygon points="608.207,458.535 608.207,448.189 597.862,448.189 597.862,437.845 597.862,427.5 587.518,427.5 587.518,437.845 
		587.518,448.189 587.518,458.535 597.862,458.535 597.862,468.879 608.207,468.879 618.552,468.879 618.552,458.535 	"/>
	<polygon points="618.552,489.569 628.896,489.569 628.896,499.914 639.241,499.914 639.241,489.569 639.241,479.224 
		628.896,479.224 628.896,468.879 618.552,468.879 618.552,479.224 608.207,479.224 608.207,489.569 608.207,499.914 
		597.862,499.914 597.862,510.259 608.207,510.259 618.552,510.259 618.552,499.914 	"/>
	<polygon points="608.207,561.983 597.862,561.983 587.518,561.983 587.518,572.328 577.172,572.328 577.172,582.673 
		566.828,582.673 566.828,593.018 556.483,593.018 556.483,603.362 566.828,603.362 577.172,603.362 577.172,593.018 
		587.518,593.018 587.518,603.362 587.518,613.707 597.862,613.707 597.862,603.362 597.862,593.018 608.207,593.018 
		618.552,593.018 618.552,582.673 608.207,582.673 608.207,572.328 618.552,572.328 628.896,572.328 628.896,561.983 
		618.552,561.983 	"/>
	<polygon points="628.896,448.189 628.896,437.845 618.552,437.845 618.552,427.5 608.207,427.5 608.207,437.845 608.207,448.189 
		618.552,448.189 	"/>
	<rect x="628.896" y="427.5" width="10.345" height="10.345"/>
	<polygon points="639.241,510.259 628.896,510.259 618.552,510.259 618.552,520.604 628.896,520.604 628.896,530.948 
		639.241,530.948 639.241,520.604 	"/>
	<rect x="628.896" y="572.328" width="10.345" height="10.345"/>
	<rect x="628.896" y="717.155" width="10.345" height="10.345"/>
	<rect x="639.241" y="530.948" width="10.345" height="10.345"/>
	<polygon points="639.241,717.155 649.586,717.155 659.931,717.155 659.931,706.811 649.586,706.811 649.586,696.466 
		639.241,696.466 639.241,706.811 	"/>
	<rect x="649.586" y="655.086" width="10.345" height="10.345"/>
	<rect x="659.931" y="541.293" width="10.345" height="10.345"/>
	<polygon points="680.621,551.638 670.275,551.638 670.275,561.983 659.931,561.983 659.931,572.328 670.275,572.328 
		680.621,572.328 680.621,582.673 670.275,582.673 659.931,582.673 659.931,572.328 649.586,572.328 649.586,582.673 
		649.586,593.018 659.931,593.018 670.275,593.018 670.275,603.362 659.931,603.362 659.931,613.707 670.275,613.707 
		680.621,613.707 680.621,603.362 690.966,603.362 701.311,603.362 701.311,593.018 690.966,593.018 690.966,582.673 
		690.966,572.328 690.966,561.983 680.621,561.983 	"/>
	<path d="M680.621,644.741v-10.345h-10.346h-10.345h-10.345v-10.345h10.345v-10.345h-10.345v-10.345v-10.345h-10.345h-10.345
		h-10.345v10.345h-10.345v10.345h10.345h10.345v-10.345h10.345v10.345v10.345v10.345h-10.345v10.345h-10.345h-10.345h-10.345
		v-10.345h10.345h10.345v-10.345h-10.345h-10.345h-10.345v10.345v10.345v10.345h10.345h10.345h10.345h10.345v10.345h-10.345h-10.345
		h-10.345v10.345v10.346h10.345v10.345h10.345v10.345v10.345h10.345v-10.345v-10.345h10.345v-10.345h10.345h10.345v10.345h10.345
		h10.346h10.345h10.345v-10.345h-10.345v-10.346h-10.345v-10.345h10.345v-10.345h-10.345V644.741z M670.275,665.431v10.345h-10.345
		h-10.345h-10.345v-10.345v-10.345v-10.345h10.345h10.345h10.345v10.345V665.431z"/>
	<rect x="670.275" y="717.155" width="10.346" height="10.345"/>
	<polygon points="680.621,448.189 670.275,448.189 670.275,458.535 670.275,468.879 670.275,479.224 680.621,479.224 
		690.966,479.224 701.311,479.224 701.311,468.879 701.311,458.535 701.311,448.189 690.966,448.189 	"/>
	<rect x="680.621" y="541.293" width="10.345" height="10.345"/>
	<polygon points="680.621,613.707 680.621,624.052 680.621,634.396 690.966,634.396 690.966,624.052 701.311,624.052 
		701.311,613.707 690.966,613.707 	"/>
	<rect x="680.621" y="706.811" width="10.345" height="10.345"/>
	<polygon points="690.966,551.638 690.966,561.983 701.311,561.983 711.655,561.983 711.655,551.638 701.311,551.638 	"/>
	<polygon points="690.966,655.086 701.311,655.086 701.311,644.741 701.311,634.396 690.966,634.396 690.966,644.741 	"/>
	<polygon points="701.311,510.259 690.966,510.259 680.621,510.259 680.621,520.604 670.275,520.604 670.275,510.259 
		659.931,510.259 659.931,520.604 659.931,530.948 670.275,530.948 670.275,541.293 680.621,541.293 680.621,530.948 
		690.966,530.948 701.311,530.948 701.311,520.604 711.655,520.604 711.655,530.948 701.311,530.948 701.311,541.293 
		711.655,541.293 711.655,551.638 722,551.638 722,541.293 722,530.948 722,520.604 722,510.259 711.655,510.259 	"/>
	<rect x="701.311" y="582.673" width="10.345" height="10.345"/>
	<rect x="701.311" y="603.362" width="10.345" height="10.345"/>
	<polygon points="711.655,675.775 711.655,665.431 701.311,665.431 701.311,675.775 701.311,686.121 711.655,686.121 	"/>
	<polygon points="701.311,696.466 701.311,706.811 701.311,717.155 690.966,717.155 690.966,727.5 701.311,727.5 711.655,727.5 
		711.655,717.155 722,717.155 722,706.811 722,696.466 722,686.121 711.655,686.121 711.655,696.466 	"/>
	<path d="M711.655,427.5h-10.345h-10.345h-10.345h-10.346h-10.345h-10.345v10.345v10.345v10.345v10.345v10.345v10.345v10.345h10.345
		h10.345h10.346h10.345h10.345h10.345H722v-10.345v-10.345v-10.345v-10.345v-10.345v-10.345V427.5H711.655z M711.655,448.189v10.345
		v10.345v10.345v10.345h-10.345h-10.345h-10.345h-10.346h-10.345v-10.345v-10.345v-10.345v-10.345v-10.345h10.345h10.346h10.345
		h10.345h10.345V448.189z"/>
	<rect x="711.655" y="572.328" width="10.345" height="10.345"/>
	<polygon points="711.655,634.396 722,634.396 722,624.052 722,613.707 711.655,613.707 711.655,624.052 	"/>
	<rect x="711.655" y="655.086" width="10.345" height="10.345"/>
</g>
</svg>
